PathFileType	4	(X/Y/Z)	Run_300 01
DataRate	CameraRate	NumFrames	NumMarkers	Units	OrigDataRate	OrigDataStartFrame	OrigNumFrames
120	120	7	42	mm	120	64	128
Frame#	Time	LASI			LPSI			RPSI			RTH1			RTH2			RTH3			LTH1			LTH2			LTH3			RTB1			RTB2			RTB3			LTB1			LTB2			RCAL			RTOE			RMT5			LCAL			LMT5			LACR			RACR			CLAV			C7			RUA1			RUA2			RUA3			RLEL			RMEL			LUA1			LUA2			LUA3			LLEL			LMEL			RFAsuperior			RFAradius			RFAulna			LFAsuperior			LFAradius			LFAulna			LTB3			LTOE			RASI			
		X1	Y1	Z1	X2	Y2	Z2	X3	Y3	Z3	X4	Y4	Z4	X5	Y5	Z5	X6	Y6	Z6	X7	Y7	Z7	X8	Y8	Z8	X9	Y9	Z9	X10	Y10	Z10	X11	Y11	Z11	X12	Y12	Z12	X13	Y13	Z13	X14	Y14	Z14	X15	Y15	Z15	X16	Y16	Z16	X17	Y17	Z17	X18	Y18	Z18	X19	Y19	Z19	X20	Y20	Z20	X21	Y21	Z21	X22	Y22	Z22	X23	Y23	Z23	X24	Y24	Z24	X25	Y25	Z25	X26	Y26	Z26	X27	Y27	Z27	X28	Y28	Z28	X29	Y29	Z29	X30	Y30	Z30	X31	Y31	Z31	X32	Y32	Z32	X33	Y33	Z33	X34	Y34	Z34	X35	Y35	Z35	X36	Y36	Z36	X37	Y37	Z37	X38	Y38	Z38	X39	Y39	Z39	X40	Y40	Z40	X41	Y41	Z41	X42	Y42	Z42	

61	0.666667	724.621662	984.212447	-516.423662	556.245729	1004.682348	-413.656903	560.803842	1003.519491	-328.713488	740.043183	806.102743	-214.415434	850.255459	723.584997	-233.796211	829.554807	591.5633350000001	-216.448634	675.861188	840.475647	-553.825749	732.515657	726.2670460000001	-537.639631	667.708874	587.079565	-523.7651069999999	772.61963	432.453958	-278.433706	697.904165	452.732012	-227.125182	597.227338	405.859871	-297.265024	674.793469	347.549897	-436.589731	593.327951	262.501214	-479.512711	447.102856	479.848139	-304.832051	466.336943	260.616666	-304.269526	439.602914	291.950581	-217.896659	410.905726	109.567182	-401.776117	598.393565	58.801385	-478.669614	728.970344	1410.244496	-581.3575090000001	715.425346	1433.884429	-201.681653	818.902405	1383.50012	-358.333736	693.31445	1480.559023	-398.666187	661.477001	1339.714245	-138.513566	659.674999	1269.276473	-134.184791	557.988292	1283.720055	-111.894289	563.65928	1195.656792	-65.086885	514.025536	1183.961834	-136.964313	697.434904	1341.069272	-638.076323	637.072676	1271.702033	-625.984112	683.1492500000001	1259.542892	-687.138782	669.209921	1162.623225	-743.008693	631.3664199999999	1106.40846	-684.49852	634.648377	1149.966517	-86.3413	762.271575	1083.434312	-173.336569	714.864945	1033.04824	-165.066131	739.782425	1168.216528	-719.724475	863.875058	1162.591574	-592.698889	879.566086	1112.452572	-635.109612	572.680642	189.242707	-401.251883	625.247092	70.584152	-390.569363	730.6794149999999	980.389366	-262.084865	
62	0.675	724.2478149999999	985.942492	-517.685731	557.06729	1009.165034	-414.356624	561.196854	1008.824236	-329.440584	743.653296	814.007515	-214.610425	855.637412	734.366863	-234.820683	839.142292	602.192799	-217.313501	671.693791	842.556362	-553.174504	724.065915	726.949516	-536.483242	652.34505	589.942605	-522.276605	789.605384	437.623738	-279.412344	713.651844	452.777134	-227.621899	616.66374	398.218713	-296.324889	652.489474	349.36519	-435.8583	570.0064190000001	265.696175	-479.136415	460.487126	462.077745	-304.158923	497.201835	245.372456	-305.122252	467.662811	274.015072	-217.552609	386.751472	113.153878	-402.28573	573.059027	58.866762	-478.767396	732.718786	1414.978588	-579.861673	711.675304	1439.193579	-201.176318	818.549123	1388.908307	-355.314293	693.778609	1485.270915	-397.868271	655.809837	1346.159988	-138.509889	653.507121	1275.80228	-133.620396	551.0595039999999	1290.73694	-114.164625	554.7563270000001	1203.194156	-66.90085999999999	507.498482	1191.346881	-140.629116	702.977128	1344.85331	-636.51476	642.166112	1275.589788	-625.05001	690.176484	1262.609512	-684.67018	677.552291	1164.865467	-739.603085	638.052739	1109.693385	-680.575756	626.512276	1158.209281	-85.663071	757.136441	1091.89271	-167.451388	709.737408	1041.43433	-162.004167	747.580076	1171.300306	-714.556162	869.167836	1169.676726	-585.129911	885.624127	1117.640801	-625.130903	549.139002	191.684936	-401.64867	600.5244740000001	70.458065	-391.261967	730.351325	986.131567	-262.408754	
63	0.683333	724.517018	987.914934	-518.892739	558.204234	1013.937458	-415.088991	561.912375	1014.523475	-330.069237	747.350223	822.478013	-214.944954	860.437511	745.150661	-236.058306	847.5571169999999	612.400808	-218.257637	668.802155	845.074438	-552.393946	716.159142	728.081358	-535.031039	636.845106	594.0965660000001	-520.284701	805.793182	442.656229	-280.324886	728.875461	452.350281	-228.188553	636.019819	389.73944	-295.235072	630.433535	352.428761	-435.012307	547.051335	270.080802	-478.829153	474.747407	442.773232	-304.231982	529.250725	229.967785	-305.593004	497.091554	255.990033	-217.467683	363.692262	118.385301	-403.486096	547.731613	58.965746	-478.663907	736.3906009999999	1420.592553	-578.088106	708.0814800000001	1444.847515	-200.804578	818.141868	1395.003076	-352.27135	694.053502	1490.385457	-396.846809	650.508536	1353.191075	-138.454347	647.88396	1282.793637	-133.095496	544.776011	1298.380565	-116.103886	546.87249	1211.495954	-68.58402	501.276216	1199.259962	-143.773311	708.539769	1349.724887	-634.9431080000001	647.219433	1280.862834	-624.592093	697.395518	1266.874607	-682.412112	685.394714	1168.446137	-736.379195	643.345939	1114.548009	-677.266163	619.397382	1167.617422	-85.029906	752.20023	1101.107222	-162.023675	705.1919339999999	1050.598911	-158.731229	754.7010759999999	1175.569407	-709.433795	873.060763	1177.533328	-577.510086	890.033557	1123.672185	-614.758729	526.137115	195.111989	-402.28198	576.22717	70.550433	-391.893435	730.3658359999999	992.34375	-262.653933	
64	0.691667	725.449973	990.289147	-519.89751	559.641597	1019.02973	-416.0333	562.947044	1020.421021	-330.709334	750.9359009999999	831.182672	-215.320178	864.686014	755.74062	-237.404115	854.741895	621.982109	-219.170955	666.829731	848.008917	-551.609504	708.830957	729.764756	-533.433377	621.981939	599.45728	-518.167852	821.07951	447.367032	-281.122873	743.60877	451.346923	-228.804096	655.334492	380.955265	-294.60854	609.008608	357.03329	-434.254692	524.874745	275.970125	-478.895437	490.092217	422.05562	-304.963638	562.288679	214.502019	-305.137469	527.920433	238.196258	-217.41293	341.923143	125.398014	-405.359821	522.475239	59.095063	-478.407085	739.978164	1426.839399	-576.111805	704.7317860000001	1450.648217	-200.42281	817.649693	1401.597265	-349.190304	694.201113	1495.789059	-395.630354	645.652744	1360.539326	-138.300893	642.8114440000001	1290.074455	-132.510691	539.149886	1306.348924	-117.731327	539.817012	1220.154272	-70.023208	495.496172	1207.401315	-146.389068	713.9465290000001	1355.496277	-633.3617410000001	652.078718	1287.309569	-624.706541	704.495263	1272.082245	-680.2888390000001	692.554132	1173.112217	-733.363299	647.6254709999999	1120.536251	-674.698032	613.025989	1177.424804	-84.211265	747.551828	1110.674322	-156.878375	701.171127	1060.014285	-155.250358	761.0046160000001	1180.78469	-704.631519	875.551622	1185.672809	-569.979874	892.888102	1130.325351	-604.441977	504.016526	199.758538	-403.245142	552.4681849999999	70.891385	-392.410362	730.717573	998.77338	-262.957655	
65	0.7	726.962954	993.167338	-520.514624	561.469734	1024.427247	-417.366888	564.334966	1026.42445	-331.562485	754.299143	839.819716	-215.702912	868.366595	765.929873	-238.698513	860.616542	630.914354	-220.041761	665.334305	851.295079	-550.847469	702.093423	732.057584	-531.8045069999999	608.3442219999999	605.7444390000001	-516.272746	835.3916829999999	451.709616	-281.841167	757.836906	449.684291	-229.499911	674.805979	372.192371	-294.798599	588.520212	363.207759	-433.779026	503.802476	283.428924	-479.54067	506.684792	400.057382	-306.227836	596.248722	199.213968	-303.769397	560.06795	220.856298	-217.216706	321.465881	134.10639	-407.674733	497.429379	59.279406	-478.142563	743.458266	1433.456664	-574.002999	701.65001	1456.488212	-199.881694	817.016439	1408.520721	-346.102401	694.322377	1501.368527	-394.263527	641.321129	1367.918469	-138.018303	638.258004	1297.44253	-131.804122	534.176249	1314.350136	-119.04113	533.4059130000001	1228.830663	-71.14853100000001	490.275008	1215.512782	-148.519211	719.035351	1361.948881	-631.758798	656.594633	1294.619037	-625.312303	711.166034	1277.980067	-678.222029	698.934634	1178.68305	-730.622203	651.134877	1127.276309	-672.94772	607.161336	1187.091176	-83.106258	743.2704629999999	1120.29685	-151.848731	697.592409	1069.294378	-151.503736	766.421003	1186.769804	-700.257212	876.743158	1193.729267	-562.62794	894.380085	1137.346816	-594.574152	483.018776	205.758434	-404.571667	529.254844	71.413873	-392.847578	731.422048	1005.283208	-263.487068	
66	0.708333	728.9479669999999	996.491098	-520.630692	563.757153	1030.05059	-419.135936	566.1130879999999	1032.537003	-332.828628	757.4190129999999	848.212182	-216.070552	871.437597	775.495704	-239.801077	865.0541899999999	639.203863	-221.001171	664.039256	854.824609	-550.083704	695.957005	734.8850210000001	-530.176683	596.0614420000001	612.671451	-514.771515	848.677378	455.656653	-282.55699	771.535879	447.303426	-230.322824	694.625657	363.469663	-295.712765	569.2135029999999	370.733441	-433.718573	484.066533	292.230297	-480.804219	524.651664	376.969777	-307.873402	631.190643	184.502267	-302.017185	593.370715	204.116583	-216.849909	302.352997	144.303448	-410.150966	472.796577	59.577414	-478.04277	746.804984	1440.209682	-571.80947	698.812136	1462.303006	-199.12114	816.209313	1415.566752	-343.065434	694.503493	1507.002184	-392.815238	637.535495	1375.096227	-137.597213	634.191156	1304.675328	-130.941099	529.819313	1322.158517	-120.031491	527.551406	1237.306512	-71.938529	485.630948	1223.403048	-150.207136	723.742948	1368.843544	-630.14346	660.702995	1302.475286	-626.224629	717.206494	1284.34427	-676.2301179999999	704.535002	1184.986305	-728.28131	653.929431	1134.516702	-672.004709	601.705909	1196.357497	-81.731168	739.386667	1129.729426	-146.891636	694.348655	1078.207265	-147.398548	770.969755	1193.347086	-696.324137	876.811951	1201.510767	-555.583241	894.746806	1144.517398	-585.46951	463.321684	213.071302	-406.247319	506.509454	71.944655	-393.311323	732.494835	1011.858763	-264.387726	
67	0.7166670000000001	731.337435	1000.048707	-520.2373710000001	566.429934	1035.812084	-421.191981	568.267607	1038.780602	-334.533132	760.313405	856.3192320000001	-216.376412	873.853174	784.213194	-240.641963	867.900888	646.7525869999999	-222.274466	662.9353139999999	858.474162	-549.302458	690.451698	738.07964	-528.4963739999999	584.915108	620.083164	-513.656882	860.904856	459.131789	-283.318459	784.698561	444.196493	-231.275079	714.829983	354.651109	-296.964626	551.347416	379.247977	-434.135443	465.829204	301.968118	-482.577122	544.084235	353.064981	-309.732198	667.164499	170.80242	-300.451583	627.647958	188.113537	-216.406502	284.742387	155.764137	-412.613949	448.797617	60.071408	-478.217706	750.0223	1446.909574	-569.559783	696.187158	1468.005936	-198.209767	815.265121	1422.478137	-340.120656	694.797065	1512.569955	-391.376016	634.241824	1381.931734	-137.0458	630.583704	1311.573701	-129.923885	526.020094	1329.625453	-120.715134	522.2580819999999	1245.450761	-72.395532	481.480587	1230.948294	-151.465318	728.11888	1375.947581	-628.55187	664.418517	1310.632792	-627.253507	722.551182	1290.990837	-674.429963	709.401392	1191.807965	-726.451631	655.976182	1142.115473	-671.764886	596.677021	1205.139665	-80.154161	735.881511	1138.765428	-142.079177	691.363956	1086.638215	-142.892219	774.7303889999999	1200.294153	-692.847759	875.95767	1208.967823	-549.0373959999999	894.215584	1151.67248	-577.348539	445.111412	221.448647	-408.243895	484.148423	72.309462	-393.898209	733.917287	1018.528234	-265.673468	
